<svg viewBox="0 0 100.4 100.4" xml:space="preserve" xmlns="http://www.w3.org/2000/svg" enable-background="new 0 0 100.4 100.4"><path d="M88.5 15.3c-.3-.3-.7-.5-1.1-.5H72.2v-7c0-.8-.7-1.5-1.5-1.5H28c-.8 0-1.5.7-1.5 1.5v7H10.9c-.4 0-.8.2-1.1.5-.3.3-.4.7-.4 1.1 0 .3.3 6.7 2.6 14.1 3.2 9.9 8.6 16.9 15.8 20.1 2.4 8 7.9 14.3 14.8 16.8v.3c0 8.3-6.3 14.9-14.4 14.9-.8 0-1.5.7-1.5 1.5v8.5c0 .8.7 1.5 1.5 1.5h42.5c.8 0 1.5-.7 1.5-1.5v-8.5c0-.8-.7-1.5-1.5-1.5-8.2 0-14.9-6.7-14.9-14.9v-.2C63 65 68.6 58.6 71 50.4c6.9-3.3 12.2-10.2 15.3-19.9 2.4-7.4 2.6-13.9 2.6-14.1.1-.4-.1-.8-.4-1.1zm-76 2.5h14v24c0 1.7.1 3.3.4 4.9C15.5 39.9 13 23 12.5 17.8zm56.7 67.7V91H29.7v-5.5c8.8-.7 15.6-8 15.8-17.3 1.2.2 2.5.4 3.8.4 1.2 0 2.4-.1 3.5-.3.4 9.1 7.5 16.5 16.4 17.2zM53.3 65.2c-1.3.3-2.6.5-3.9.5-1.5 0-3-.2-4.4-.6-.3-.1-.8-.3-1-.3-8.3-2.8-14.5-12-14.5-22.9V9.4h39.7v32.5c0 10.9-6.2 20.1-14.6 22.9m17.3-18.3c.2-1.5.4-3.1.4-4.7v-24h13.6c-.5 5.2-2.9 21.6-14 28.7z" fill="#c69963" class="fill-000000"></path><path d="m63.8 27.3-8.2-1.2-3.7-7.5c-.4-.8-1.3-1.4-2.2-1.4-.9 0-1.8.5-2.2 1.4l-3.7 7.5-8.2 1.2c-.9.1-1.7.8-2 1.7-.3.9-.1 1.9.6 2.5l6 5.8-1.4 8.2c-.2.9.2 1.8 1 2.4.4.3.9.5 1.5.5.4 0 .8-.1 1.1-.3l7.6-3.8 7.2 3.8c.8.4 1.8.4 2.6-.2.8-.6 1.1-1.5 1-2.4l-1.4-8.2 6-5.8c.7-.7.9-1.6.6-2.5-.5-.9-1.2-1.6-2.2-1.7zm-7.2 8.4c-.4.3-.5.8-.4 1.3l1.4 7.9-6.9-3.6c-.4-.2-.9-.2-1.4 0L41.9 45l1.4-8c.1-.5-.1-1-.4-1.3l-5.7-5.6 7.9-1.2c.5-.1.9-.4 1.1-.8l3.5-7.2 3.5 7.2c.2.4.6.8 1.1.8l7.9 1.2-5.6 5.6z" fill="#c69963" class="fill-000000"></path></svg>