<svg viewBox="0 0 50 50" xml:space="preserve" xmlns="http://www.w3.org/2000/svg"><path fill="none" d="M0 0h50v50H0z"></path><path fill="none" stroke="#c69963" stroke-linecap="round" stroke-miterlimit="10" stroke-width="2" d="M28.081 29.919 24 34h-2v2l-2 2h-2v2l-3 3h-3v3l-3 3H3l-2-2v-6l18.96-18.96" class="stroke-000000"></path><path d="M49 16c0 8.281-6.719 15-15 15s-15-6.719-15-15c0-8.282 6.719-15 15-15s15 6.718 15 15z" fill="none" stroke="#c69963" stroke-linecap="round" stroke-miterlimit="10" stroke-width="2" class="stroke-000000"></path><path d="M41.071 23.071 26.929 8.929c3.904-3.904 10.238-3.904 14.143 0s3.904 10.238-.001 14.142zM1.61 46.39l16.672-16.672" fill="none" stroke="#c69963" stroke-linecap="round" stroke-miterlimit="10" stroke-width="2" class="stroke-000000"></path></svg>